<svg width="22" height="22" viewBox="0 0 22 22" fill="none" xmlns="http://www.w3.org/2000/svg">
<path fill-rule="evenodd" clip-rule="evenodd" d="m1.029599,15.36935c0.962049,-0.513472 1.772551,-0.178029 2.898324,0.290468c0.293621,0.121809 0.612951,0.254862 0.901159,0.359805c0.257088,0.093699 0.65219,-0.108691 1.066237,-0.320451c0.516881,-0.264232 1.055412,-0.537834 1.700837,-0.515346c0.487113,0.016866 0.8971,0.326073 1.311146,0.639029c0.259794,0.196768 0.523647,0.395411 0.669781,0.402907c0.167783,0.007496 0.416752,-0.194894 0.665721,-0.397285c0.405928,-0.331695 0.811855,-0.663391 1.376095,-0.689626c0.606185,-0.02811 1.075708,0.260484 1.541172,0.547204c0.265206,0.163037 0.529059,0.326073 0.749613,0.348561c0.208376,0.022488 0.487113,-0.224878 0.757732,-0.462874c0.37616,-0.333569 0.745554,-0.659643 1.231314,-0.734602c0.57777,-0.088077 1.208311,0.288594 1.744136,0.607171l0.013531,0.00937c0,0.758964 0,1.519802 0,2.278765c-0.115013,-0.04685 -0.234085,-0.110565 -0.357216,-0.179903c-0.085245,-0.048724 -0.173196,-0.101195 -0.2625,-0.153667c-0.366688,-0.217382 -0.798324,-0.475992 -0.970167,-0.449756c-0.138015,0.020614 -0.355863,0.213634 -0.57777,0.410403c-0.081186,0.071211 -0.163724,0.144297 -0.246263,0.215508c-0.41134,0.346687 -0.857861,0.642777 -1.446456,0.580935c-0.478995,-0.050598 -0.868685,-0.290468 -1.259729,-0.532212l-0.033827,-0.020614c-0.292268,-0.179903 -0.585889,-0.354183 -0.834858,-0.342939c-0.152899,0.007496 -0.3721,0.178029 -0.594008,0.357931l-0.051418,0.041228c-0.439755,0.359805 -0.880863,0.71961 -1.499226,0.687752c-0.504703,-0.026236 -0.929574,-0.344813 -1.34768,-0.661517l-0.052771,-0.039354c-0.232732,-0.176155 -0.455992,-0.337317 -0.562886,-0.341065c-0.327448,-0.011244 -0.704961,0.170533 -1.071649,0.357931l-0.063595,0.031858c-0.641366,0.327947 -1.252963,0.639029 -1.978221,0.376671c-0.389691,-0.140549 -0.684665,-0.264232 -0.955283,-0.376671l-0.008119,-0.003748c-0.980992,-0.408529 -1.621005,-0.670887 -2.388208,0.024362c-0.020296,0.01874 -0.041946,0.03748 -0.063595,0.058094l0,-0.058094l0,-2.346229l-0.001353,0zm11.895034,-9.216257l1.915979,-0.402907c1.192074,-0.247366 0.833505,-3.219506 -0.694136,-2.743514l-4.344779,0.993212c-0.470876,0.106817 -1.278672,0.189272 -1.630476,0.624037c-0.201611,0.24924 -0.285502,0.595927 -0.239497,1.028818c0.064948,0.612793 0.434343,1.381127 0.65625,1.9377l0.537178,1.338025c0.391044,0.972598 0.600773,1.066297 -0.123131,1.604131l-4.934728,3.665514l0.361276,0.148045l1.083827,0.022488c0.123131,-0.05622 0.251675,-0.121809 0.382925,-0.189272c0.516881,-0.264232 1.055412,-0.537834 1.700837,-0.515346c0.487113,0.016866 0.8971,0.326073 1.311146,0.639029l0.186727,0.138675l0.955283,0.020614c0.063595,-0.048724 0.128544,-0.101195 0.192139,-0.153667c0.405928,-0.331695 0.811855,-0.663391 1.376095,-0.689626c0.606185,-0.02811 1.075708,0.260484 1.541172,0.547204c0.265206,0.163037 0.529059,0.326073 0.749613,0.348561c0.050064,0.005622 0.104188,-0.005622 0.161018,-0.026236l-2.514045,-6.191646c-0.213789,-0.52659 -0.598067,-1.191854 -0.54259,-1.592887c0.018943,-0.134927 0.14884,-0.189272 0.307152,-0.223004c0.535825,-0.106817 1.068943,-0.215508 1.604767,-0.327947l0,0zm2.070231,1.379253c1.051353,0 1.903801,1.18061 1.903801,2.636697c0,1.456086 -0.852448,2.636697 -1.903801,2.636697c-1.051353,0 -1.903801,-1.18061 -1.903801,-2.636697c0.001353,-1.45796 0.852448,-2.636697 1.903801,-2.636697l0,0z" fill="#FF7643"/>
</svg>
