<svg width="22" height="18" viewBox="0 0 22 18" fill="none" xmlns="http://www.w3.org/2000/svg">
<path fill-rule="evenodd" clip-rule="evenodd" d="m2.108439,0.495538l17.831386,0c0.234718,0 0.424893,0.197796 0.424893,0.441918c0,0.134394 -0.057615,0.254716 -0.148675,0.335826l-7.117535,7.365725l0,6.32109c0,0.175028 -0.097748,0.326181 -0.239582,0.397805l-3.357494,2.016222c-0.202641,0.121903 -0.461986,0.049963 -0.579497,-0.16064c-0.038765,-0.069727 -0.057159,-0.145778 -0.057007,-0.221038l-0.000912,0l0,-8.354863l-7.056119,-7.389283c-0.165093,-0.172656 -0.164333,-0.451721 0.001672,-0.623271c0.082698,-0.085538 0.190784,-0.128227 0.29887,-0.128227l0,-0.001265l0,0zm16.803433,0.883994l-15.784145,0l6.439226,6.743245c0.089995,0.080952 0.14685,0.2008 0.14685,0.334245l0,7.770961l2.534767,-1.521811l0,-6.24915l0.001216,0c0,-0.113207 0.041653,-0.226414 0.12496,-0.312584l6.537126,-6.764906l0,0z" fill="#7C7C7C"/>
</svg>
