<svg width="19" height="22" viewBox="0 0 19 22" fill="none" xmlns="http://www.w3.org/2000/svg">
<path fill-rule="evenodd" clip-rule="evenodd" d="m3.849671,9.525944c-0.121243,0.10983 -0.271673,0.157583 -0.417614,0.145644c-0.147063,-0.011938 -0.289635,-0.083566 -0.392916,-0.212498l-0.002245,-0.003581c-0.102158,-0.127737 -0.14594,-0.287708 -0.134714,-0.441709c0.011226,-0.156389 0.078583,-0.308002 0.199826,-0.417832l0.001123,-0.001194c1.017091,-0.927588 2.102662,-1.629547 3.22528,-2.098713c1.131598,-0.472748 2.301365,-0.707928 3.480114,-0.697183c1.161909,0.010744 2.328308,0.261444 3.468887,0.759261c1.101288,0.481104 2.177878,1.193807 3.205072,2.145271c0.012349,0.00955 0.023575,0.020295 0.032556,0.031039c0.107771,0.10983 0.168393,0.254281 0.177374,0.402313c0.008981,0.148032 -0.032556,0.299646 -0.125733,0.423802c-0.008981,0.014326 -0.020207,0.027458 -0.032556,0.039396c-0.103281,0.114605 -0.239117,0.179071 -0.378322,0.188622c-0.14594,0.010744 -0.297494,-0.039396 -0.416491,-0.15042c-0.928405,-0.863123 -1.897223,-1.506585 -2.882881,-1.939937c-1.009233,-0.444096 -2.036428,-0.666144 -3.056887,-0.675695c-1.032808,-0.00955 -2.063371,0.20056 -3.065868,0.62078c-0.999129,0.419026 -1.970193,1.049356 -2.884004,1.882634l0,0zm5.947626,4.899384c0.348011,0 0.662344,0.15042 0.890236,0.392763c0.227891,0.242343 0.369341,0.577803 0.369341,0.946689c0,0.37008 -0.14145,0.704346 -0.369341,0.946689c-0.227891,0.242343 -0.543347,0.392763 -0.890236,0.392763c-0.348011,0 -0.662344,-0.15042 -0.891358,-0.392763c-0.227891,-0.242343 -0.369341,-0.577803 -0.369341,-0.946689c0,-0.368886 0.14145,-0.704346 0.369341,-0.946689l0,0c0.229014,-0.242343 0.543347,-0.392763 0.891358,-0.392763l0,0zm-2.17451,-0.728222c-0.123488,0.106249 -0.276164,0.15042 -0.422104,0.133706c-0.139205,-0.015519 -0.273919,-0.08476 -0.372709,-0.204141c-0.011226,-0.011938 -0.02133,-0.02507 -0.029188,-0.038202c-0.089809,-0.127737 -0.125733,-0.280545 -0.111139,-0.428577c0.014594,-0.148032 0.079706,-0.291289 0.191968,-0.396344c0.010104,-0.010744 0.02133,-0.020295 0.032556,-0.028651c0.449047,-0.3856 0.918301,-0.68047 1.399904,-0.879836c0.488339,-0.202947 0.990148,-0.306808 1.496449,-0.308002c0.499565,-0.001194 0.998007,0.096698 1.489713,0.298452c0.477112,0.195784 0.947489,0.490655 1.401026,0.884611c0.123488,0.106249 0.194213,0.256669 0.209929,0.411863c0.014594,0.155195 -0.02582,0.317553 -0.125733,0.448871l-0.001123,0.001194c-0.099913,0.130125 -0.24024,0.205335 -0.387303,0.222048c-0.14594,0.015519 -0.298616,-0.027458 -0.422104,-0.133706l0,0c-0.352502,-0.306808 -0.712862,-0.533632 -1.073222,-0.684051c-0.364851,-0.152807 -0.729701,-0.226823 -1.091184,-0.22563c-0.364851,0.001194 -0.731946,0.079985 -1.096797,0.233986c-0.371586,0.155195 -0.736437,0.387987 -1.088939,0.692408l0,0zm-1.825376,-1.972169c-0.008981,0.00955 -0.019084,0.019101 -0.029188,0.026264c-0.11563,0.10028 -0.258202,0.144451 -0.396284,0.136094c-0.142572,-0.00955 -0.281777,-0.07521 -0.38618,-0.194591c-0.010104,-0.00955 -0.017962,-0.020295 -0.02582,-0.031039c-0.0943,-0.122962 -0.135837,-0.274576 -0.127978,-0.421414c0.008981,-0.156389 0.074093,-0.309196 0.19309,-0.421414c0.764502,-0.719866 1.554825,-1.264242 2.358619,-1.624771c0.806039,-0.36053 1.626672,-0.538407 2.452919,-0.522888c0.816143,0.014326 1.631163,0.214885 2.434957,0.608842c0.782464,0.383212 1.555948,0.95027 2.311469,1.707144l0.014594,0.014326c0.106649,0.113412 0.161657,0.262638 0.166147,0.413057c0.00449,0.156389 -0.04715,0.313971 -0.156044,0.436933l-0.013471,0.015519c-0.107771,0.113412 -0.246976,0.173102 -0.388426,0.177877c-0.147063,0.004775 -0.295248,-0.05014 -0.410878,-0.165939c-0.654486,-0.656594 -1.31683,-1.144861 -1.978052,-1.474352c-0.667957,-0.331878 -1.335915,-0.500205 -1.998259,-0.512143c-0.672448,-0.011938 -1.347141,0.137288 -2.016221,0.440515c-0.676938,0.309196 -1.348263,0.774781 -2.004995,1.391979l0,0z" fill="#FF7643"/>
</svg>
