<svg width="25" height="18" viewBox="0 0 25 18" fill="none" xmlns="http://www.w3.org/2000/svg">
<path fill-rule="evenodd" clip-rule="evenodd" d="m14.59083,11.731708c0,1.90213 -0.493326,3.526226 -1.481392,4.866538c-0.989479,1.342229 -2.185336,2.013343 -3.587569,2.013343c-1.396579,0 -2.592436,-0.669197 -3.583329,-2.013343c-0.989479,-1.340311 -1.487046,-2.964408 -1.487046,-4.866538c0,-1.896377 0.496153,-3.512804 1.487046,-4.858868c0.99372,-1.342229 2.188163,-2.017178 3.583329,-2.017178c1.402234,0 2.59809,0.673032 3.587569,2.017178c0.986652,1.346064 1.481392,2.96249 1.481392,4.858868l0,0l0,0l0,0zm-11.441208,-1.267447c0.445266,-0.412256 0.668605,-0.951065 0.63044,-2.183998l0,-3.169577c-0.004241,-0.442935 -0.596515,-0.496625 -0.626199,0l-0.022617,2.571327c-0.001414,0.481285 -0.534319,0.496625 -0.532905,0l0.022617,-2.65953c-0.007068,-0.475532 -0.572484,-0.523469 -0.579552,0c0,0.738226 -0.022617,1.921304 -0.022617,2.65953c0.028271,0.465945 -0.466469,0.527304 -0.453747,0l0.022617,-2.642273c-0.012722,-0.358567 -0.303912,-0.487037 -0.501807,-0.3183c-0.210618,0.18216 -0.168211,0.548396 -0.176693,0.857109l-0.073504,3.033437c0.011308,0.882036 0.182347,1.59917 0.691222,1.904047c0.077745,0.046019 0.185174,0.082451 0.309566,0.107378l-0.175279,7.397598c-0.009895,0.439101 0.254438,0.797667 0.564003,0.797667l0.070677,0c0.349145,0 0.644575,-0.404586 0.63468,-0.897376l-0.154076,-7.299807c0.162557,-0.034514 0.296844,-0.086286 0.373175,-0.157233l0,0zm12.774178,7.334321l-0.008481,-6.644032c-1.717453,-1.346064 -1.170413,-6.532819 0.548454,-6.504057c2.089215,0.032597 2.336585,5.844447 0.539973,6.482965l0.132873,6.691969c0.025444,1.26553 -1.211405,1.382496 -1.212819,-0.026845l0,0zm-3.450456,-6.072626c0,1.108297 -0.286949,2.05361 -0.865088,2.837855c-0.576725,0.78041 -1.273601,1.173491 -2.090628,1.173491c-0.811373,0 -1.508249,-0.393081 -2.084974,-1.173491c-0.576725,-0.784245 -0.865088,-1.729558 -0.865088,-2.837855c0,-1.100628 0.288363,-2.04594 0.865088,-2.82635c0.578139,-0.78041 1.273601,-1.173491 2.084974,-1.173491c1.641122,0.001917 2.955716,1.771742 2.955716,3.999841l0,0l0,0zm0.691222,0c0,-1.361403 -0.353385,-2.525307 -1.064397,-3.489795s-1.571859,-1.443855 -2.582541,-1.443855c-1.007855,0 -1.865875,0.479367 -2.572646,1.443855c-0.711012,0.964487 -1.068638,2.128391 -1.068638,3.489795c0,1.365238 0.357626,2.529142 1.068638,3.497464c0.706771,0.966405 1.564791,1.451524 2.572646,1.451524c1.009269,0 1.870116,-0.48512 2.582541,-1.451524c0.709598,-0.97024 1.064397,-2.134144 1.064397,-3.497464l0,0l0,0l0,0z" fill="#FF7643"/>
</svg>
