<svg width="19" height="22" viewBox="0 0 19 22" fill="none" xmlns="http://www.w3.org/2000/svg">
<path fill-rule="evenodd" clip-rule="evenodd" d="m5.815761,9.107282c1.228886,0 2.225395,1.085929 2.225395,2.425085c0,1.339156 -0.99651,2.425085 -2.225395,2.425085c-1.228886,0 -2.225395,-1.085929 -2.225395,-2.425085c0,-1.339156 0.99651,-2.425085 2.225395,-2.425085l0,0zm3.286058,-3.92581l1.415642,-1.847166l-0.932357,0c-0.079835,0 -0.156818,-0.010875 -0.226674,-0.032624c-0.042769,-0.013982 -0.08126,-0.029517 -0.11405,-0.051267c-0.035641,-0.020196 -0.06843,-0.045053 -0.099794,-0.07457l-0.001426,-0.001554c-0.031364,-0.029517 -0.057025,-0.060588 -0.08126,-0.094766c-0.02281,-0.034178 -0.042769,-0.071463 -0.05845,-0.111855c-0.014256,-0.038839 -0.027087,-0.077677 -0.035641,-0.118069c-0.008554,-0.043499 -0.011405,-0.085445 -0.011405,-0.127391c0,-0.041946 0.002851,-0.083891 0.009979,-0.124284c0.007128,-0.041946 0.018533,-0.082338 0.032789,-0.119623c0.017107,-0.040392 0.035641,-0.077677 0.05845,-0.113409c0.021384,-0.034178 0.048471,-0.068356 0.078409,-0.097873l0.001426,-0.001554c0.028512,-0.029517 0.062727,-0.055928 0.098368,-0.077677c0.035641,-0.02175 0.074132,-0.040392 0.116901,-0.054374c0.035641,-0.010875 0.074132,-0.02175 0.111198,-0.02641c0.042769,-0.004661 0.082686,-0.007768 0.122603,-0.007768l2.020106,0c0.102645,0 0.19531,0.015535 0.276571,0.045053c0.084112,0.031071 0.156818,0.079231 0.21812,0.141373c0.065579,0.065249 0.11405,0.142926 0.146839,0.234585c0.031364,0.090106 0.047046,0.191086 0.047046,0.301388c0,0.086999 -0.008554,0.167783 -0.024236,0.243907c-0.008554,0.041946 -0.021384,0.082338 -0.035641,0.121177c-0.014256,0.038839 -0.031364,0.076124 -0.051322,0.110302c-0.014256,0.023303 -0.029938,0.051267 -0.049897,0.080784c-0.017107,0.024857 -0.038492,0.057481 -0.067004,0.094766l-0.079835,0.111855l-1.384279,1.794345l1.241716,0c0.038492,0 0.076984,0.001554 0.115475,0.007768c0.037066,0.004661 0.074132,0.013982 0.108347,0.024857c0.041343,0.010875 0.079835,0.027964 0.115475,0.04816c0.034215,0.018643 0.065579,0.041946 0.096942,0.068356l0.001426,0.001554c0.031364,0.027964 0.059876,0.062142 0.085537,0.09632c0.024236,0.034178 0.044194,0.073017 0.059876,0.114962l0.007128,0.020196c0.012831,0.034178 0.02281,0.071463 0.028512,0.110302c0.005702,0.038839 0.009979,0.077677 0.009979,0.116516c0,0.041946 -0.004277,0.085445 -0.011405,0.127391c-0.007128,0.041946 -0.017107,0.080784 -0.031364,0.119623c-0.014256,0.041946 -0.034215,0.079231 -0.057025,0.116516c-0.02281,0.035732 -0.049897,0.068356 -0.08126,0.097873l-0.002851,0.004661c-0.029938,0.029517 -0.062727,0.054374 -0.099794,0.076124c-0.034215,0.02175 -0.074132,0.038839 -0.11405,0.051267l-0.015682,0.004661c-0.032789,0.009321 -0.067004,0.018643 -0.102645,0.023303c-0.038492,0.004661 -0.075558,0.007768 -0.112624,0.007768l-2.306656,0c-0.105496,0 -0.202438,-0.015535 -0.290827,-0.041946l-0.001426,0c-0.049897,-0.015535 -0.095517,-0.038839 -0.138285,-0.063695c-0.044194,-0.02641 -0.084112,-0.055928 -0.119752,-0.091659c-0.035641,-0.035732 -0.06843,-0.07457 -0.095517,-0.116516c-0.028512,-0.041946 -0.051322,-0.086999 -0.069855,-0.135158c-0.018533,-0.04816 -0.031364,-0.094766 -0.041343,-0.14448c-0.008554,-0.051267 -0.014256,-0.10098 -0.014256,-0.153801c0,-0.041946 0.004277,-0.080784 0.009979,-0.124284c0.007128,-0.040392 0.017107,-0.077677 0.029938,-0.116516l0.001426,-0.004661c0.004277,-0.015535 0.011405,-0.027964 0.017107,-0.045053l0.019959,-0.041946l0.02281,-0.041946c0.008554,-0.015535 0.018533,-0.031071 0.028512,-0.045053l0.20529,-0.268763l0,0zm-7.859452,2.314783l1.040704,0c0.26374,0 0.480434,0.242353 0.480434,0.521991l0,6.79987l5.321846,0l1.516861,-5.816475l5.966227,0c1.492626,0 2.714384,1.332942 2.714384,2.957951l0,2.959505l-0.002851,0l0.002851,0.057481l0,4.736761l-1.998722,0l0,-2.223124l-13.522021,0l0,2.122144l-1.998722,0l0,-11.594112c0,-0.287406 0.215269,-0.521991 0.479009,-0.521991l0,0zm4.630419,-0.568598l0.966571,-1.259926l-0.63155,0c-0.027087,0 -0.054174,-0.001554 -0.08126,-0.004661c-0.025661,-0.004661 -0.051322,-0.009321 -0.075558,-0.017089c-0.028512,-0.009321 -0.055599,-0.02175 -0.078409,-0.034178c-0.025661,-0.013982 -0.048471,-0.031071 -0.069855,-0.051267l-0.001426,-0.003107c-0.019959,-0.018643 -0.038492,-0.040392 -0.052748,-0.063695c-0.015682,-0.023303 -0.029938,-0.04816 -0.041343,-0.076124c-0.009979,-0.02641 -0.018533,-0.054374 -0.024236,-0.082338c-0.004277,-0.029517 -0.007128,-0.057481 -0.007128,-0.088552c0,-0.029517 0.002851,-0.057481 0.007128,-0.086999c0.004277,-0.027964 0.012831,-0.055928 0.02281,-0.080784c0.009979,-0.027964 0.02281,-0.052821 0.038492,-0.077677c0.014256,-0.02175 0.032789,-0.045053 0.052748,-0.066802l0.001426,-0.001554c0.019959,-0.020196 0.042769,-0.038839 0.06843,-0.054374c0.024236,-0.013982 0.051322,-0.02641 0.08126,-0.035732c0.024236,-0.007768 0.049897,-0.015535 0.076984,-0.018643c0.027087,-0.004661 0.054174,-0.004661 0.082686,-0.004661l1.381427,0c0.069855,0 0.134008,0.009321 0.189608,0.031071c0.059876,0.02175 0.108347,0.054374 0.151116,0.097873c0.044194,0.045053 0.078409,0.099427 0.101219,0.161569c0.021384,0.062142 0.032789,0.130498 0.032789,0.206622c0,0.060588 -0.005702,0.116516 -0.017107,0.167783c-0.005702,0.027964 -0.014256,0.057481 -0.02281,0.083891c-0.009979,0.02641 -0.02281,0.051267 -0.035641,0.07457c-0.009979,0.015535 -0.021384,0.034178 -0.035641,0.055928c-0.014256,0.020196 -0.028512,0.041946 -0.04562,0.065249l-0.057025,0.07457c-0.017107,0.023303 -0.037066,0.051267 -0.062727,0.080784l-0.88246,1.14341l0.845394,0c0.054174,0 0.105496,0.007768 0.153967,0.02175c0.028512,0.007768 0.054174,0.020196 0.078409,0.034178c0.024236,0.012428 0.047046,0.029517 0.06843,0.049713l0.001426,0c0.021384,0.018643 0.041343,0.041946 0.057025,0.065249c0.017107,0.024857 0.031364,0.049713 0.042769,0.077677l0.004277,0.013982c0.008554,0.023303 0.014256,0.049713 0.019959,0.076124c0.004277,0.02641 0.007128,0.054374 0.007128,0.080784c0,0.029517 -0.002851,0.057481 -0.007128,0.086999c-0.005702,0.027964 -0.012831,0.055928 -0.02281,0.082338c-0.008554,0.027964 -0.02281,0.054374 -0.038492,0.079231c-0.015682,0.024857 -0.034215,0.04816 -0.055599,0.068356l-0.001426,0.003107c-0.021384,0.02175 -0.044194,0.038839 -0.06843,0.052821c-0.024236,0.015535 -0.049897,0.02641 -0.078409,0.035732l-0.009979,0.001554c-0.02281,0.007768 -0.047046,0.012428 -0.071281,0.017089c-0.024236,0.001554 -0.049897,0.004661 -0.076984,0.004661l-1.581014,0c-0.035641,0 -0.069855,-0.001554 -0.10407,-0.007768c-0.032789,-0.004661 -0.065579,-0.010875 -0.095517,-0.02175l-0.001426,0c-0.032789,-0.010875 -0.065579,-0.024857 -0.095517,-0.041946c-0.028512,-0.018643 -0.057025,-0.038839 -0.08126,-0.063695c-0.025661,-0.023303 -0.047046,-0.049713 -0.067004,-0.077677c-0.019959,-0.029517 -0.035641,-0.060588 -0.047046,-0.094766c-0.012831,-0.031071 -0.02281,-0.065249 -0.028512,-0.099427c-0.005702,-0.034178 -0.008554,-0.06991 -0.008554,-0.105641c0,-0.027964 0.001426,-0.055928 0.007128,-0.083891c0.004277,-0.027964 0.011405,-0.054374 0.021384,-0.080784c0.001426,-0.009321 0.009979,-0.024857 0.012831,-0.034178l0.014256,-0.027964c0.004277,-0.009321 0.009979,-0.018643 0.015682,-0.027964c0.007128,-0.010875 0.014256,-0.02175 0.021384,-0.031071l-0.002851,-0.001554l0.139711,-0.186425l0,0z" fill="#FF7643"/>
</svg>
